<svg width="32" height="32" viewBox="0 0 32 32" fill="none" xmlns="http://www.w3.org/2000/svg">
<path d="M30.4971 23.9C30.0885 23.6194 29.5323 23.1423 28.976 22.392C29.0155 21.408 28.6149 20.7714 28.5563 20.6863L28.3856 20.4366L28.1056 20.3663C28.0176 20.3446 27.9269 20.3326 27.8368 20.3177C27.5787 19.6722 27.3743 19.0035 27.2261 18.3194L27.1061 17.7731C27.3408 16.7141 27.3212 15.6087 27.0491 14.56C28.1035 14.5166 29.0928 14.812 28.5541 16.2669C27.4176 19.336 32 21.904 32 21.904C32 21.904 29.4795 17.6063 31.3888 14.4097C32.5291 12.4983 28.8587 11.3806 26.368 12.9543C25.6565 11.808 24.6016 11.1331 23.3984 11.1326C23.2576 11.1326 23.1141 11.1423 22.9712 11.1611C22.264 11.252 21.5648 11.3606 20.888 11.464C19.4661 11.6829 18.1221 11.8903 17.048 11.8903C15.1675 11.8903 14.9696 11.232 14.8848 10.9509C14.8528 10.8457 14.8197 10.7474 14.7872 10.644L15.2549 10.9149C15.1909 9.696 14.2795 8.23314 14.2795 8.23314L15.2128 8.388C14.9984 7.08343 13.3851 5.97086 13.3851 5.97086L14.1504 5.82171C13.5792 4.76457 11.9712 4.04743 11.9712 4.04743L12.9813 3.97714C12.4725 3.23257 10.6352 2.68514 10.6352 2.68514L11.4133 2.14114C9.70985 1.40457 8.35358 1.77314 8.35358 1.77314L8.70825 0.951429C7.47465 0.873143 6.50452 1.46914 6.05065 1.81486C5.39198 0.572572 4.65332 0 4.65332 0C4.60585 0.313714 4.58932 0.592 4.58452 0.848C4.07091 0.536572 3.68638 0.440571 3.61438 0.424571L2.74771 0.242286L2.68638 1.19429C2.61705 2.26229 2.86931 3.20686 3.02131 3.664C2.70878 4.876 1.45118 7.67657 0.755713 9.22629C0.363179 10.1006 0.154646 10.568 0.0757123 10.7914C-0.336555 11.9571 1.02985 13.132 1.88051 13.7286L2.14345 13.9126L2.45118 13.8497C2.57971 13.8234 2.69065 13.7766 2.78718 13.72C2.88745 13.8514 3.02078 13.952 3.17385 14.008C3.27571 14.0446 3.38238 14.0646 3.48958 14.0646C4.04958 14.0646 4.41172 13.5914 4.76212 13.1343C5.00052 12.8234 5.27038 12.4709 5.54772 12.3069C6.13492 11.9594 6.62345 11.6109 7.01598 11.2589C6.9024 11.6091 6.76404 11.9495 6.60212 12.2771C5.45652 14.5474 6.05865 17.5074 6.41812 18.8091C5.37652 19.4274 3.71731 19.8766 3.08105 20.0126L2.56371 20.1234L2.46505 20.6834C1.39145 26.8217 3.50931 29.0629 4.86665 29.8526C5.59998 30.2777 6.20905 30.3429 6.27625 30.3491L7.02078 30.4171L7.11572 29.616L7.40852 27.1469L7.52372 26.1743L6.61598 26.1966C6.57492 26.1966 6.24745 26.1937 5.90612 26.0949C5.65065 26.0206 5.33065 25.88 5.24852 25.6251C5.08478 25.1194 5.23838 23.9429 5.44532 22.984C5.74612 23.0063 6.04478 23.0183 6.33758 23.0183C6.76745 23.0183 7.17385 22.9903 7.56745 22.9491C7.52594 23.0028 7.48327 23.0554 7.43945 23.1069C6.86452 23.7594 6.91305 24.4126 6.99252 24.744C7.15838 25.4314 7.70505 25.9029 8.14345 26.0497C8.42345 26.1423 10.1717 26.3354 13.3413 26.6251L13.664 26.6543L13.912 26.4274C13.9163 26.4234 14.4715 25.9223 15.1381 25.6417C15.4176 25.5234 15.6683 25.464 15.8827 25.464C15.9189 25.464 15.9552 25.4657 15.9915 25.4697L17.3419 25.612L16.776 24.2783C16.7024 24.1046 16.0251 22.5634 14.9424 21.9766L14.5333 21.7543L14.1541 22.032C14.1408 22.0423 13.8187 22.2783 13.4165 22.6057C13.1781 22.8011 12.8699 23.0623 12.5835 23.3337L12.3467 23.2589C12.8245 22.716 13.5611 21.996 14.5659 21.2846C14.8176 21.2657 15.0731 21.2526 15.3381 21.2526C16.5355 21.2526 17.7051 21.4371 18.9765 21.6737C20.3088 24.2571 22.2336 24.8143 23.6443 24.8143C24.3115 24.8143 24.9355 24.6909 25.4608 24.5331C24.9275 27.4897 25.7637 29.5646 26.3819 30.6189C26.8101 31.3469 27.2059 31.7331 27.2496 31.7749L27.4875 32L27.8016 31.9851C29.1488 31.9206 29.4949 29.892 29.5685 29.272L29.6256 28.7897L29.2683 28.4943C29.1054 28.3606 28.9551 28.2104 28.8192 28.0457C28.4822 27.6374 28.2695 27.1287 28.2096 26.5874C28.4411 26.8326 28.6784 27.0743 28.9307 27.3011C29.3399 27.6764 29.7769 28.0154 30.2373 28.3149L31.0224 28.8229L31.3632 27.9057C31.3829 27.8531 31.8395 26.6097 31.872 25.1737L31.8869 24.5229L31.3083 24.3423C31.3093 24.3423 30.9733 24.2286 30.4971 23.9ZM26.9733 20.272C26.9088 20.2743 26.8427 20.2754 26.7792 20.2783C26.664 20.2834 26.5504 20.2897 26.4368 20.2897C26.2624 20.2897 26.0933 20.2794 25.9061 20.2074C26.1854 19.8847 26.4243 19.5246 26.6171 19.136C26.7248 19.5406 26.8448 19.9171 26.9733 20.272ZM2.30505 13.0211C2.30505 13.0211 0.556246 11.7949 0.804779 11.092C1.03625 10.4343 3.22451 5.88571 3.75091 3.968L3.72798 4.05143C3.95998 4.28857 4.46878 4.57943 4.90665 5.04057C5.18238 5.33143 5.48692 5.71714 5.80532 6.192C5.51465 6.64229 4.63518 7.86571 2.46025 10.06C2.12638 9.58571 1.82345 9.26971 1.65118 9.16343L1.48691 9.53029C1.60905 9.60971 1.72958 9.70114 1.96158 9.952C2.29331 10.3114 2.90558 11.2971 3.26025 12.3634C3.30451 12.34 3.37971 12.3383 3.44958 12.3429C2.75145 12.3886 2.64798 12.9509 2.30505 13.0211ZM5.17332 11.5669C4.37598 12.0377 3.88531 13.2211 3.49011 13.2211C3.46745 13.2208 3.44497 13.2168 3.42345 13.2091C3.22451 13.1371 3.67198 12.4897 3.60798 12.3629L3.61545 12.364C3.38168 11.6721 3.06966 11.0135 2.68638 10.4029C4.73545 8.34 5.66345 7.11543 6.03838 6.55771C6.49652 7.292 6.97332 8.19829 7.42452 9.27371C7.30665 9.81829 6.79252 10.6074 5.17332 11.5669ZM10.9888 23.7063L12.7904 24.2783C13.0677 23.9794 13.4411 23.6503 13.7781 23.3709C14.0491 23.6954 14.3925 24.1966 14.7237 24.9166C14.2512 25.1427 13.8085 25.4343 13.4069 25.784C13.4069 25.784 8.71252 25.3554 8.37438 25.244C8.03732 25.1314 7.33385 24.4497 8.00532 23.6874C8.16798 23.5029 8.41012 23.1697 8.68052 22.7777C9.63518 22.5869 10.5072 22.3097 11.3584 22.0343C11.8663 21.8661 12.3777 21.7103 12.8923 21.5669C11.5845 22.7331 10.9888 23.7063 10.9888 23.7063ZM16.9216 20.5103C16.3963 20.4475 15.8683 20.414 15.3397 20.4097C14.4896 20.4097 13.6304 20.4994 12.7616 20.732C10.72 21.2783 8.88958 22.1737 6.33812 22.1737C5.87145 22.1737 5.38025 22.1434 4.85918 22.076C4.85918 22.076 4.13172 24.7251 4.51198 25.9023C4.70025 26.4851 5.22292 26.7697 5.70398 26.9086L5.73332 26.9154C5.59145 27.4131 5.39732 28.1989 5.26505 29.1246C5.25545 29.1189 5.24638 29.1149 5.23678 29.1097C3.99465 28.388 2.26345 26.3789 3.23198 20.8406C3.23198 20.8406 6.06825 20.2354 7.34825 19.1617C7.34825 19.1617 5.96318 15.304 7.28692 12.6817C7.77012 11.7229 8.38132 10.0137 7.71412 8.93029C7.71505 8.92866 7.71612 8.92713 7.71732 8.92572C7.36158 8.08629 7.06452 7.29657 6.60372 6.58057C6.18173 5.92012 5.70244 5.30385 5.17225 4.74C4.64692 4.18457 4.07998 3.84686 3.83678 3.60286C3.83678 3.60286 3.38185 2.52686 3.46451 1.25314C3.46451 1.25314 4.48905 1.46971 5.47412 2.75429C5.47412 2.75429 5.79945 2.66286 6.33598 2.66286C8.03412 2.66343 11.8448 3.57943 14.1413 11.2126C14.2048 11.4229 14.2997 11.5989 14.4091 11.7594C14.4037 11.7566 14.3979 11.7549 14.3925 11.7526C14.3925 11.7526 15.6171 13.1937 14.8736 14.4383C14.1675 15.6211 15.4608 17.4691 17.5136 17.9183C17.5227 18.3371 17.4651 19.3137 16.9216 20.5103ZM26.6293 23.1309C26.6293 23.1309 25.272 23.9714 23.6459 23.9714C22.2235 23.9714 20.5947 23.328 19.4896 20.9143C19.0091 20.8228 18.5275 20.7386 18.0448 20.6617C18.1179 20.5526 18.4709 19.9331 18.6501 18.0171C19.3212 17.983 19.9798 17.8105 20.5899 17.5091C23.0715 16.3091 20.8469 13.4149 21.7189 12.1897C22.1632 12.1229 22.6117 12.0571 23.0635 11.9983C23.1771 11.984 23.2885 11.9766 23.3973 11.9766C24.3861 11.9771 25.1915 12.5629 25.7333 13.4389L25.7317 13.44C25.9593 13.8129 26.1369 14.2182 26.2592 14.644H26.2603C26.8165 16.5446 26.4261 18.9811 24.6288 20.2657C25.3317 21.0154 25.8832 21.1331 26.4368 21.1331C26.6907 21.1331 26.9445 21.1086 27.2133 21.1086C27.4384 21.1086 27.6747 21.1251 27.9291 21.1891C27.9291 21.1891 28.4245 21.9114 28.0843 23.0326C27.7803 24.0389 26.6731 26.576 28.1717 28.5171C27.9749 28.9914 27.5963 29.7114 27.0139 30.1183C26.3051 28.8823 25.5056 26.5366 26.6293 23.1309ZM28.2459 25.3994C28.336 24.8246 28.5109 24.2474 28.6949 23.6994C28.7285 23.5994 28.7531 23.5194 28.7808 23.4349C29.2432 23.9629 29.6971 24.3497 30.0773 24.6114L30.1595 24.6651C29.9808 25.6194 29.7349 26.2811 29.5179 26.7269C29.4901 26.7017 29.4603 26.68 29.4325 26.6543C29.0027 26.2663 28.6139 25.8377 28.2459 25.3994Z" fill="white"/>
</svg>
