<svg width="34" height="28" viewBox="0 0 34 28" fill="none" xmlns="http://www.w3.org/2000/svg">
<path d="M3.36875 18.0063C5.28125 23.3375 10.6687 27.1938 17 27.1938C23.3312 27.1938 28.7188 23.3375 30.6313 18.0063C32.425 17.9438 33.875 16.2438 33.875 14.1625C33.875 12.1938 32.575 10.5625 30.9125 10.3438C29.3 4.55627 23.675 0.275024 17 0.275024C10.325 0.275024 4.7 4.55627 3.0875 10.3438C1.425 10.5625 0.125 12.1938 0.125 14.1625C0.125 16.2438 1.575 17.9438 3.36875 18.0063ZM32.625 14.1625C32.6545 14.6944 32.5158 15.2222 32.2287 15.6709C31.9415 16.1196 31.5204 16.4665 31.025 16.6625C31.4166 15.0394 31.4803 13.3544 31.2125 11.7063C31.6587 11.9371 32.0292 12.2914 32.2796 12.7269C32.5301 13.1624 32.65 13.6608 32.625 14.1625ZM14.8188 1.70627C13.625 2.89377 12.75 4.63753 13.7125 6.70627C13.7627 6.81476 13.843 6.90658 13.9438 6.97083C14.0446 7.03508 14.1617 7.06907 14.2812 7.06878C14.385 7.06752 14.4867 7.04048 14.5774 6.99008C14.668 6.93969 14.7447 6.86752 14.8005 6.78009C14.8563 6.69266 14.8895 6.59272 14.8971 6.48927C14.9046 6.38582 14.8863 6.28212 14.8438 6.18752C13.65 3.58127 16.4875 1.86252 17.1437 1.50627C17.3875 1.50627 17.625 1.50627 17.8687 1.54377C17.1562 2.75627 16.6938 4.37503 17.8687 5.40627C17.9926 5.48424 18.1398 5.5163 18.2848 5.49686C18.4299 5.47741 18.5635 5.4077 18.6624 5.29987C18.7613 5.19204 18.8192 5.05292 18.8261 4.90676C18.833 4.7606 18.7883 4.61666 18.7 4.50002C17.9438 3.87502 18.8375 2.36252 19.2688 1.73752C25.425 2.72502 30.125 7.72502 30.125 13.7375C30.125 20.4688 24.2375 25.9438 17 25.9438C9.7625 25.9438 3.875 20.4688 3.875 13.7375C3.875 7.69377 8.61875 2.68127 14.8188 1.70627ZM2.7875 11.7063C2.51967 13.3544 2.58342 15.0394 2.975 16.6625C2.47963 16.4665 2.05852 16.1196 1.77134 15.6709C1.48417 15.2222 1.3455 14.6944 1.375 14.1625C1.35247 13.6628 1.47351 13.1671 1.72383 12.7341C1.97415 12.301 2.34326 11.9487 2.7875 11.7188V11.7063Z" fill="#8AD8A6"/>
<path d="M9.92505 13.7187C10.0908 13.7187 10.2498 13.6529 10.367 13.5357C10.4842 13.4185 10.55 13.2595 10.55 13.0937C10.518 12.7912 10.6053 12.4882 10.7931 12.2489C10.981 12.0097 11.2548 11.8531 11.5563 11.8125C11.8578 11.8531 12.1316 12.0097 12.3194 12.2489C12.5073 12.4882 12.5946 12.7912 12.5625 13.0937C12.5625 13.2595 12.6284 13.4185 12.7456 13.5357C12.8628 13.6529 13.0218 13.7187 13.1875 13.7187C13.3533 13.7187 13.5123 13.6529 13.6295 13.5357C13.7467 13.4185 13.8125 13.2595 13.8125 13.0937C13.8451 12.4599 13.6265 11.8387 13.2041 11.3649C12.7818 10.8911 12.1897 10.6028 11.5563 10.5625C10.9229 10.6028 10.3308 10.8911 9.90846 11.3649C9.48612 11.8387 9.26752 12.4599 9.30005 13.0937C9.30005 13.2595 9.36589 13.4185 9.4831 13.5357C9.60031 13.6529 9.75929 13.7187 9.92505 13.7187Z" fill="#8AD8A6"/>
<path d="M20.2688 13.7187C20.4346 13.7187 20.5935 13.6529 20.7107 13.5357C20.8279 13.4185 20.8938 13.2595 20.8938 13.0937C20.8618 12.7912 20.949 12.4882 21.1369 12.2489C21.3248 12.0097 21.5986 11.8531 21.9 11.8125C22.2015 11.8531 22.4753 12.0097 22.6632 12.2489C22.8511 12.4882 22.9383 12.7912 22.9063 13.0937C22.9063 13.2595 22.9721 13.4185 23.0894 13.5357C23.2066 13.6529 23.3655 13.7187 23.5313 13.7187C23.6971 13.7187 23.856 13.6529 23.9732 13.5357C24.0905 13.4185 24.1563 13.2595 24.1563 13.0937C24.1888 12.4599 23.9702 11.8387 23.5479 11.3649C23.1255 10.8911 22.5335 10.6028 21.9 10.5625C21.2666 10.6028 20.6746 10.8911 20.2522 11.3649C19.8299 11.8387 19.6113 12.4599 19.6438 13.0937C19.6438 13.2595 19.7096 13.4185 19.8269 13.5357C19.9441 13.6529 20.103 13.7187 20.2688 13.7187Z" fill="#8AD8A6"/>
<path d="M17 21.6125C17.4405 21.6117 17.8764 21.524 18.283 21.3545C18.6895 21.185 19.0586 20.937 19.3692 20.6247C19.6798 20.3124 19.9257 19.9419 20.093 19.5344C20.2602 19.1269 20.3454 18.6905 20.3438 18.25C20.3438 18.0842 20.2779 17.9253 20.1607 17.8081C20.0435 17.6908 19.8845 17.625 19.7188 17.625C19.553 17.625 19.394 17.6908 19.2768 17.8081C19.1596 17.9253 19.0938 18.0842 19.0938 18.25C19.0938 18.8053 18.8732 19.3379 18.4805 19.7305C18.0879 20.1232 17.5553 20.3437 17 20.3437C16.4447 20.3437 15.9122 20.1232 15.5195 19.7305C15.1269 19.3379 14.9063 18.8053 14.9063 18.25C14.9063 18.0842 14.8404 17.9253 14.7232 17.8081C14.606 17.6908 14.447 17.625 14.2813 17.625C14.1155 17.625 13.9565 17.6908 13.8393 17.8081C13.7221 17.9253 13.6563 18.0842 13.6563 18.25C13.6546 18.6905 13.7399 19.1269 13.9071 19.5344C14.0743 19.9419 14.3203 20.3124 14.6308 20.6247C14.9414 20.937 15.3105 21.185 15.7171 21.3545C16.1236 21.524 16.5596 21.6117 17 21.6125Z" fill="#8AD8A6"/>
</svg>
