<svg width="40" height="40" viewBox="0 0 40 40" fill="none" xmlns="http://www.w3.org/2000/svg">
<path d="M19.2938 10.386C19.361 12.4047 19.5422 30.0391 19.3375 31.2657C19.1531 32.3703 18.4469 34.3657 17.0985 34.575C15.75 34.7844 14.875 33.7703 14.4703 33.6375C14.0656 33.5047 12.9469 34.1891 12.0625 33.5844C11.1781 32.9797 11.3719 31.3969 11.125 31.1282C10.8781 30.8594 9.5094 31.1766 8.85315 30.2703C8.1969 29.3641 8.76721 28.3953 8.5594 28.1328C8.35158 27.8703 6.32971 27.6328 6.04377 25.5157C5.71877 23.086 7.66721 22.611 7.65627 22.2328C7.64533 21.8547 6.04065 19.7875 6.85315 17.2469C7.66565 14.7063 9.80315 14.4344 9.92815 14.2063C10.0531 13.9782 9.07502 12.5782 10.3625 10.5594C11.65 8.54066 13.5078 9.08597 13.7719 8.90628C14.036 8.7266 13.7266 7.93128 14.6219 6.80472C15.4485 5.76409 17.0297 5.50784 18.1719 6.16566C19.2078 6.76878 19.2266 8.36722 19.2938 10.386Z" fill="#8AD8A6"/>
<path d="M16.7281 35.8547C15.5437 35.8547 14.6843 35.2656 14.1921 34.9281L14.1796 34.9203L14.1218 34.9328C13.5171 35.0719 12.3906 35.3297 11.3578 34.6203C10.4296 33.9859 10.1937 32.9391 10.0828 32.1953C9.42496 32.1109 8.48433 31.8906 7.84527 31.0078C7.41247 30.3974 7.21643 29.6505 7.29371 28.9062C5.10621 27.8406 4.89058 26.2891 4.80933 25.6844C4.53121 23.6406 5.46871 22.5234 6.15933 21.9266C5.69058 20.9078 4.97183 19.0297 5.66246 16.8672C5.87955 16.1406 6.24432 15.4666 6.73392 14.8875C7.22352 14.3083 7.8274 13.8365 8.50777 13.5016C8.36246 12.6656 8.35152 11.3875 9.30777 9.8875C10.4015 8.18281 11.8656 7.81875 12.7843 7.73593C12.9416 7.11206 13.2345 6.53054 13.6421 6.03281C14.8375 4.52968 17.1 4.11406 18.7984 5.09531C20.4015 6.0125 20.4687 8.025 20.5375 10.1562V10.3469C20.5875 11.8437 20.8062 30.0344 20.5656 31.4734C20.264 33.2875 19.2234 35.5125 17.2843 35.8141C17.1002 35.8417 16.9143 35.8553 16.7281 35.8547ZM14.35 32.3797C14.5167 32.3785 14.6827 32.4027 14.8421 32.4516C15.1161 32.5495 15.3733 32.6892 15.6046 32.8656C16.0734 33.1891 16.4453 33.4125 16.9078 33.3344C17.3312 33.2687 17.925 32.1391 18.1062 31.0547C18.2812 29.7766 18.1203 12.6781 18.0453 10.4219V10.2297C18.0046 9.00468 17.9562 7.47968 17.5546 7.24843C16.9296 6.8875 16.0359 7.04062 15.6062 7.58125C15.3463 7.8854 15.1888 8.26374 15.1562 8.6625C15.1109 8.98437 15.0281 9.58281 14.4593 9.95625C14.0984 10.1937 13.7281 10.2 13.4015 10.2062C12.8015 10.2172 12.0546 10.2328 11.4171 11.2312C10.7406 12.2922 10.9484 13.0266 11.0796 13.5125C11.1687 13.8328 11.3031 14.3172 11.0187 14.8219C10.7796 15.2453 10.4062 15.4 10.0812 15.5359C9.49371 15.7797 8.51871 16.1875 8.04996 17.6281C7.58121 19.1172 8.20621 20.4125 8.58277 21.1859C8.76871 21.5672 8.90308 21.8437 8.91246 22.1984C8.93277 22.9406 8.39683 23.3516 8.07652 23.6047C7.60777 23.9703 7.15152 24.3141 7.29527 25.3625C7.40933 26.2078 7.95465 26.4969 8.65621 26.7875C8.97808 26.9203 9.30933 27.0578 9.56246 27.3844C9.95777 27.8969 9.87496 28.4656 9.82808 28.8422C9.78121 29.2187 9.76558 29.3953 9.87964 29.5531C9.97496 29.6844 10.3906 29.7266 10.6609 29.7531C11.1031 29.7969 11.6546 29.8516 12.0671 30.3094C12.4046 30.6859 12.4656 31.1328 12.5359 31.6062C12.5671 31.8375 12.65 32.45 12.7843 32.5687C12.9125 32.6562 13.3109 32.5687 13.575 32.5031C13.8279 32.4331 14.0878 32.3917 14.35 32.3797Z" fill="#8AD8A6"/>
<path d="M20.6704 9.97187C20.5657 12.0031 20.3766 29.725 20.561 30.9609C20.7266 32.0734 21.0297 33.3203 22.6844 34.1234C23.9344 34.7297 25.1251 33.7437 25.5172 33.6156C25.9094 33.4875 26.8469 33.6578 27.7547 33.0641C28.6626 32.4703 29.0579 31.1422 29.3047 31.0031C29.5516 30.8641 30.7469 30.9844 31.4297 30.0828C32.1126 29.1812 31.5547 28.2406 31.6329 27.9469C31.711 27.6531 33.4954 27.3062 33.8297 25.3797C34.2422 23.0094 32.311 22.3703 32.2579 22.05C32.2047 21.7297 33.7079 20.6062 33.2407 18.3703C32.7297 15.9281 31.1485 15.6375 31.0282 15.3359C30.9079 15.0344 31.8344 14.2625 31.3532 12.8672C30.8719 11.4719 29.6344 11.5031 29.4532 11.2016C29.2719 10.9 29.7141 10.1406 28.9563 9.20312C28.1672 8.22656 26.5657 8.72031 26.3001 8.57812C26.0344 8.43593 26.0407 7.46093 25.1235 6.48906C24.4047 5.72812 22.8376 5.33437 21.7969 6.21874C20.8735 6.99999 20.7813 7.94374 20.6704 9.97187Z" fill="#8AD8A6"/>
<path d="M23.5219 35.5687C23.0414 35.5694 22.5671 35.4592 22.136 35.2468C19.7626 34.0906 19.4657 32.0999 19.3235 31.1437C19.111 29.7234 19.3235 11.6749 19.4204 9.90463C19.5204 7.96713 19.6001 6.43744 20.9829 5.26088C22.5454 3.93588 24.8516 4.37963 26.0282 5.62494C26.4916 6.11614 26.8537 6.6938 27.0938 7.32494C27.8844 7.30463 29.0985 7.39369 29.9251 8.41869C30.3969 8.9817 30.6596 9.69045 30.6688 10.4249C31.1055 10.6125 31.4974 10.8905 31.8187 11.2406C32.14 11.5908 32.3834 12.0051 32.5329 12.4562C32.8153 13.2378 32.8114 14.0943 32.5219 14.8734C33.1844 15.3718 34.0844 16.2984 34.461 18.1109C34.7391 19.3746 34.5179 20.697 33.8438 21.8015C34.5266 22.4453 35.4063 23.6249 35.0579 25.5921C34.7673 27.2577 33.6891 28.1062 32.9813 28.5421C33.0475 28.9422 33.032 29.3515 32.9359 29.7454C32.8398 30.1393 32.6649 30.5097 32.4219 30.8343C31.6985 31.7906 30.6735 32.0281 30.0532 32.1265C29.7594 32.6734 29.2719 33.5578 28.4344 34.1062C27.5282 34.6984 26.6282 34.7593 26.0907 34.7953L25.8969 34.8093L25.7735 34.8749C25.3469 35.1156 24.5157 35.5687 23.5219 35.5687ZM23.2235 6.95931C22.9967 6.95115 22.7746 7.02555 22.5985 7.16869C22.1188 7.57494 22.0173 8.00463 21.911 10.0359C21.8048 12.0671 21.6376 29.5312 21.7969 30.7812C21.9391 31.739 22.1266 32.4624 23.2313 32.9999C23.6094 33.1843 24.0657 32.9671 24.5798 32.6874C24.7546 32.5845 24.9388 32.4982 25.1298 32.4296C25.3887 32.3558 25.6559 32.3148 25.9251 32.3078C26.311 32.2812 26.7063 32.2546 27.0688 32.0203C27.3923 31.8093 27.6798 31.2718 27.8719 30.9171C28.0954 30.5015 28.2876 30.1359 28.6923 29.9156C28.9428 29.7888 29.2155 29.7118 29.4954 29.689C29.9173 29.6296 30.2548 29.5656 30.4329 29.3312C30.5532 29.1749 30.5438 29.0187 30.4563 28.6109C30.3641 28.2894 30.3539 27.9499 30.4266 27.6234C30.5829 27.0374 31.0391 26.7812 31.4048 26.5765C32.0016 26.2406 32.4688 25.9234 32.6001 25.1702C32.7829 24.1156 32.2876 23.7265 31.8032 23.3515C31.5141 23.1265 31.1188 22.8171 31.0219 22.2578C30.9251 21.6984 31.2173 21.2515 31.4501 20.9093C31.786 20.4171 32.2469 19.7421 32.0141 18.6296C31.7391 17.3124 31.1266 16.9312 30.6813 16.6531C30.3969 16.4765 30.0438 16.2562 29.8641 15.7984C29.6235 15.1906 29.8782 14.664 30.0298 14.3484C30.1954 14.0046 30.3266 13.7328 30.1688 13.2765C30.0298 12.8734 29.8063 12.7656 29.3876 12.5968C29.0751 12.4703 28.6438 12.2953 28.3735 11.8421C28.1843 11.4915 28.1095 11.0905 28.1594 10.6953C28.1766 10.3953 28.1844 10.2453 27.9798 9.99213C27.8235 9.79056 27.1985 9.82494 26.8641 9.83588C26.4641 9.85775 26.0829 9.87963 25.6985 9.66869C25.1751 9.38431 25.0032 8.89994 24.8657 8.50931C24.7406 8.07701 24.5195 7.67855 24.2188 7.34369C23.9463 7.09738 23.5924 6.96048 23.2251 6.95931H23.2235Z" fill="#8AD8A6"/>
<path d="M19.2938 10.386C19.361 12.4047 19.5422 30.0391 19.3375 31.2657C19.1531 32.3703 18.4469 34.3657 17.0985 34.575C15.75 34.7844 14.875 33.7703 14.4703 33.6375C14.0656 33.5047 12.9469 34.1891 12.0625 33.5844C11.1781 32.9797 11.3719 31.3969 11.125 31.1282C10.8781 30.8594 9.5094 31.1766 8.85315 30.2703C8.1969 29.3641 8.76721 28.3953 8.5594 28.1328C8.35158 27.8703 6.32971 27.6328 6.04377 25.5157C5.71877 23.086 7.66721 22.611 7.65627 22.2328C7.64533 21.8547 6.04065 19.7875 6.85315 17.2469C7.66565 14.7063 9.80315 14.4344 9.92815 14.2063C10.0531 13.9782 9.07502 12.5782 10.3625 10.5594C11.65 8.54066 13.5078 9.08597 13.7719 8.90628C14.036 8.7266 13.7266 7.93128 14.6219 6.80472C15.4485 5.76409 17.0297 5.50784 18.1719 6.16566C19.2078 6.76878 19.2266 8.36722 19.2938 10.386Z" fill="white"/>
<path d="M20.6704 9.97187C20.5657 12.0031 20.3766 29.725 20.561 30.9609C20.7266 32.0734 21.0297 33.3203 22.6844 34.1234C23.9344 34.7297 25.1251 33.7437 25.5172 33.6156C25.9094 33.4875 26.8469 33.6578 27.7547 33.0641C28.6626 32.4703 29.0579 31.1422 29.3047 31.0031C29.5516 30.8641 30.7469 30.9844 31.4297 30.0828C32.1126 29.1812 31.5547 28.2406 31.6329 27.9469C31.711 27.6531 33.4954 27.3062 33.8297 25.3797C34.2422 23.0094 32.311 22.3703 32.2579 22.05C32.2047 21.7297 33.7079 20.6062 33.2407 18.3703C32.7297 15.9281 31.1485 15.6375 31.0282 15.3359C30.9079 15.0344 31.8344 14.2625 31.3532 12.8672C30.8719 11.4719 29.6344 11.5031 29.4532 11.2016C29.2719 10.9 29.7141 10.1406 28.9563 9.20312C28.1672 8.22656 26.5657 8.72031 26.3001 8.57812C26.0344 8.43593 26.0407 7.46093 25.1235 6.48906C24.4047 5.72812 22.8376 5.33437 21.7969 6.21874C20.8735 6.99999 20.7813 7.94374 20.6704 9.97187Z" fill="white"/>
<path d="M23.7749 11.875C23.0718 11.3828 15.6858 18.8812 15.9233 19.4953C16.1608 20.1094 18.5686 20.0734 18.8921 20.4469C19.2155 20.8203 16.2765 27.3953 16.8218 27.8219C17.2311 28.1344 24.6077 20.9109 24.4983 20.2625C24.389 19.6141 22.4108 19.7359 21.978 19.325C21.5452 18.9141 24.278 12.2297 23.7749 11.875Z" fill="#8AD8A6"/>
<path d="M1.74224 22.9954C2.0813 22.9954 4.16255 22.4407 4.50318 22.2313C4.8438 22.0219 4.44068 20.8391 4.17974 20.786C3.9188 20.7329 1.7188 21.3688 1.4188 21.55C1.1188 21.7313 1.4063 23 1.74224 22.9954Z" fill="#8AD8A6"/>
<path d="M1.30619 15.3032C1.04057 15.0313 1.39682 13.9844 1.80151 13.9798C2.20619 13.9751 4.13744 14.6188 4.37494 14.8438C4.61244 15.0688 4.33276 16.1204 3.87963 16.1673C3.42651 16.2141 1.59838 15.6016 1.30619 15.3032Z" fill="#8AD8A6"/>
<path d="M5.39066 10.5031C5.22035 10.1625 5.88129 9.27652 6.26722 9.39527C6.65316 9.51402 7.50004 10.1562 7.64066 10.439C7.78129 10.7218 7.20941 11.6406 6.7641 11.5468C6.31879 11.4531 5.57816 10.875 5.39066 10.5031Z" fill="#8AD8A6"/>
<path d="M3.75004 30.7047C3.37035 30.686 2.92035 29.6766 3.21254 29.3969C3.50472 29.1173 4.46254 28.6985 4.79535 28.7094C5.12816 28.7204 5.63285 29.6735 5.33285 30.0173C5.03285 30.361 4.16097 30.7235 3.75004 30.7047Z" fill="#8AD8A6"/>
<path d="M37.7688 16.311C37.5125 16.2844 36.0844 16.6032 35.8125 16.7798C35.5406 16.9563 35.95 18.1329 36.1422 18.2079C36.3344 18.2829 37.861 17.8954 38.0985 17.7391C38.336 17.5829 38.025 16.3376 37.7688 16.311Z" fill="#8AD8A6"/>
<path d="M34.3531 13.8203C33.9734 13.8062 33.5125 12.8015 33.8031 12.5187C34.0937 12.2359 35.9375 11.375 36.2625 11.3844C36.5875 11.3937 37.1328 12.2953 36.8359 12.6344C36.539 12.9734 34.7703 13.8344 34.3531 13.8203Z" fill="#8AD8A6"/>
<path d="M39.0625 22.1875C39.3844 22.389 39.2829 23.4906 38.8907 23.5937C38.4985 23.6968 36.4704 23.5203 36.1922 23.35C35.9141 23.1796 35.9344 22.1 36.3641 21.9437C36.7938 21.7875 38.7094 21.964 39.0625 22.1875Z" fill="#8AD8A6"/>
<path d="M37.2063 27.7547C37.4751 28.0234 37.1251 29.0734 36.7204 29.0812C36.3157 29.0891 35.3891 28.7406 35.1579 28.5125C34.9266 28.2844 35.1907 27.2359 35.6438 27.1859C36.0969 27.1359 36.911 27.4594 37.2063 27.7547Z" fill="#8AD8A6"/>
</svg>
