<svg width="40" height="40" viewBox="0 0 40 40" fill="none" xmlns="http://www.w3.org/2000/svg">
<path fill-rule="evenodd" clip-rule="evenodd" d="M37.1281 22.5457C37.0128 23.3117 36.7209 24.0405 36.2756 24.6746C35.8302 25.3087 35.2439 25.8306 34.5623 26.1991C34.3736 26.3038 34.1758 26.3916 33.9717 26.4616C34.2311 29.8993 28.7682 31.1494 25.8243 30.3306L26.9181 34.1559L24.1054 34.2559L19.1832 27.2085C17.5237 27.6773 15.5642 27.9023 14.2985 25.8709C14.1835 25.6844 14.0792 25.4912 13.986 25.2928C13.664 25.3584 13.3364 25.3918 13.0078 25.3928C12.0702 25.3928 10.5076 25.1115 9.7138 24.5615C9.08448 24.1443 8.58522 23.5583 8.27308 22.8707C6.58234 23.102 5.14787 22.7051 4.21031 21.7238C3.02273 20.5018 2.6852 18.4829 3.30399 16.3172C4.11967 13.4264 6.60109 10.1699 11.5327 8.94793C11.9605 8.41608 12.4725 7.95793 13.0484 7.59159C16.1455 5.60708 21.1739 5.4352 24.9898 7.3197C26.4692 7.04412 27.9963 7.19031 29.3964 7.7416C32.1403 8.76979 34.1342 10.9199 34.5092 13.1045C35.2521 13.4894 35.8602 14.091 36.2531 14.8296C37.075 16.3734 37.1906 17.9204 36.6375 19.1705C37.1585 20.214 37.3307 21.3972 37.1281 22.5457ZM35.103 20.9206C34.6661 21.1513 34.1798 21.2719 33.6857 21.2719C33.1916 21.2719 32.7053 21.1513 32.2684 20.9206L32.4966 19.4049C33.4591 19.4986 34.2436 19.1986 34.653 18.583C35.1124 17.8985 35.0405 16.8828 34.4592 15.7921C33.8092 14.5702 32.4059 14.3764 31.6278 14.367H31.5778C29.6276 14.367 27.64 15.4765 26.8368 16.9235L25.668 16.3641C25.8978 15.6187 26.2882 14.9327 26.8118 14.3545C26.361 13.9718 26.0203 13.476 25.8248 12.9179C25.6292 12.3598 25.5859 11.7597 25.6992 11.1793L26.8524 11.0731C26.9052 11.5425 27.0993 11.9848 27.4091 12.3414C27.7188 12.698 28.1297 12.9521 28.5869 13.0701C29.5489 12.6407 30.5933 12.4274 31.6465 12.445C31.7965 12.445 31.9403 12.4607 32.0872 12.47C31.3399 11.1453 30.1558 10.1213 28.737 9.57297C25.2742 8.22913 22.9397 10.3136 22.4053 11.0324C21.1177 12.7576 21.9427 14.3889 22.5709 15.4484L21.5396 16.3859C20.6414 15.609 20.0387 14.546 19.8332 13.3764C18.5113 13.7733 16.7361 13.6889 15.7423 11.9919L16.6799 11.3481C17.7331 12.1356 19.4051 12.0669 20.1989 11.095C20.388 10.6652 20.6272 10.2592 20.9114 9.88549C21.3627 9.28952 21.9072 8.7703 22.524 8.34789C19.9332 7.64159 16.2736 7.75723 14.061 9.17607C13.4631 9.52328 12.9709 10.0267 12.6372 10.6323C12.3036 11.2379 12.1411 11.9229 12.1671 12.6138C12.1671 13.7295 13.0421 15.4921 14.2204 15.7671L13.5359 17.0954C12.7842 16.9212 12.1017 16.5262 11.5764 15.9609L10.5607 17.2547L9.54504 16.761L10.5389 14.1608C10.3765 13.6557 10.2932 13.1287 10.292 12.5982C10.2945 12.1782 10.3384 11.7595 10.4232 11.3481C7.29801 12.6388 5.75416 14.7858 5.1885 16.7485C4.75409 18.2579 4.92285 19.6205 5.6354 20.3518C6.20106 20.9331 7.06675 21.0706 7.88243 21.0175L10.0701 19.3143L10.7889 19.9205L10.1388 22.0519C10.4795 23.1364 11.5952 23.6958 13.6297 23.302C13.7352 22.4392 14.0757 21.6219 14.6141 20.9394C15.0089 20.3712 15.5313 19.9037 16.1392 19.5736L17.2081 16.6953L18.2769 16.6484L18.1612 19.008C19.9582 18.8236 21.9677 19.1892 23.8397 18.908L24.1835 20.1581C21.4396 21.4269 18.63 19.358 16.083 22.0863C15.1673 23.0676 15.5173 23.9208 16.083 24.7802C16.8987 26.0085 18.43 25.2709 19.9957 24.7802C22.3678 24.0552 24.0898 23.5302 27.3369 23.7958C26.5618 22.3238 26.6368 20.5456 27.6744 18.5892L29.2026 19.1924C28.1307 21.6644 29.1339 23.0958 29.8276 23.7271C30.8996 24.7021 32.5122 24.9959 33.5779 24.4083C33.9861 24.183 34.337 23.8667 34.6036 23.4842C34.8702 23.1017 35.0452 22.6629 35.1155 22.2019C35.1858 21.7772 35.1805 21.3435 35.0999 20.9206H35.103Z" fill="#8AD8A6"/>
</svg>
