<svg width="40" height="40" viewBox="0 0 40 40" fill="none" xmlns="http://www.w3.org/2000/svg">
<path d="M21.875 6.01245C24.2438 6.87495 28.8688 9.22495 28.6438 14.6187C28.6361 14.7813 28.6921 14.9405 28.8 15.0625L32 18.6062C32.2038 18.8351 32.3164 19.1309 32.3164 19.4375C32.3164 19.744 32.2038 20.0398 32 20.2687L30.8125 21.6187C30.3244 22.1788 30.0519 22.8945 30.0438 23.6375L30 26.875C30 27.3722 29.8025 27.8491 29.4508 28.2008C29.0992 28.5524 28.6223 28.75 28.125 28.75H26.8C26.137 28.75 25.5011 29.0133 25.0322 29.4822C24.5634 29.951 24.3 30.5869 24.3 31.25V33.9C24.3 34.0657 24.2342 34.2247 24.1169 34.3419C23.9997 34.4591 23.8408 34.525 23.675 34.525H15.8938C15.728 34.525 15.569 34.4591 15.4518 34.3419C15.3346 34.2247 15.2688 34.0657 15.2688 33.9V25.6562C15.2693 25.4195 15.2026 25.1876 15.0764 24.9873C14.9503 24.7871 14.7699 24.6267 14.5563 24.525C12.3375 23.45 5.85625 19.625 8.175 12.5C8.75034 10.581 9.9079 8.88835 11.4875 7.6562" stroke="#8AD8A6" stroke-width="1.875" stroke-miterlimit="10" stroke-linecap="round"/>
<path d="M13.875 13.75C13.875 11.6375 12.575 9.875 11.8687 8.56875C11.4787 7.85697 11.2664 7.06148 11.25 6.25C11.25 3.475 13.7812 1.25 16.5562 1.25" stroke="#8AD8A6" stroke-width="1.875" stroke-miterlimit="10"/>
<path d="M19.2813 13.75C19.2813 11.6375 20.5875 9.875 21.2875 8.56875C21.6681 7.85475 21.8697 7.05907 21.875 6.25C21.875 3.475 19.375 1.25 16.575 1.25" stroke="#8AD8A6" stroke-width="1.875" stroke-miterlimit="10"/>
<path d="M19.675 13.65H13.6875C13.2077 13.65 12.8188 14.039 12.8188 14.5188V15.3063C12.8188 15.7861 13.2077 16.175 13.6875 16.175H19.675C20.1548 16.175 20.5438 15.7861 20.5438 15.3063V14.5188C20.5438 14.039 20.1548 13.65 19.675 13.65Z" stroke="#8AD8A6" stroke-width="1.875" stroke-miterlimit="10"/>
<path d="M18.6188 16.175V17.5C18.6188 18.2938 17.875 18.9313 16.6813 18.9313C15.3688 18.9313 14.7438 18.3063 14.7438 17.5V16.175" stroke="#8AD8A6" stroke-width="1.875" stroke-miterlimit="10"/>
</svg>
