<svg width="40" height="40" viewBox="0 0 40 40" fill="none" xmlns="http://www.w3.org/2000/svg">
<path d="M1.25 19.6425C1.25 25.1437 3.5875 33.125 10.6263 33.125C17.665 33.125 20.0012 25.1437 20.0012 19.6425C20.0012 2.61934 1.25 2.61934 1.25 19.6425ZM9.23 32.1462C3.23875 32.1462 1.74938 24.7806 1.74938 20.055C1.74938 3.78684 16.7094 3.78684 16.7087 20.055C16.7081 24.78 15.2213 32.1462 9.23 32.1462Z" fill="#8AD8A6"/>
<path d="M20.0012 19.6425C20.0012 25.1437 22.3368 33.125 29.3768 33.125C36.415 33.125 38.75 25.1437 38.75 19.6425C38.75 2.61934 20.0012 2.61934 20.0012 19.6425ZM27.9806 32.1462C21.9881 32.1462 20.5006 24.7806 20.5006 20.055C20.5006 3.78684 35.4593 3.78684 35.4593 20.055C35.4587 24.78 33.9712 32.1462 27.9806 32.1462Z" fill="#8AD8A6"/>
<path d="M1.74939 20.1538C1.74939 24.0357 4.47064 27.0069 7.82876 27.0069C11.1863 27.0069 13.9063 24.0357 13.9063 20.1538C13.9056 10.6069 1.74939 10.6069 1.74939 20.1538Z" fill="#8AD8A6"/>
<path d="M20.5006 20.1538C20.5006 24.0357 23.2212 27.0069 26.5794 27.0069C29.9362 27.0069 32.6562 24.0357 32.6562 20.1538C32.6556 10.6069 20.5006 10.6069 20.5006 20.1538Z" fill="#8AD8A6"/>
</svg>
