<svg width="40" height="40" viewBox="0 0 40 40" fill="none" xmlns="http://www.w3.org/2000/svg">
<path d="M15.345 29.2391C15.1583 29.1041 14.8983 29.145 14.7625 29.3308C14.6266 29.5166 14.6683 29.7775 14.8541 29.9133C15.0825 30.08 15.2191 30.3475 15.2191 30.63C15.2191 31.1183 14.8216 31.5158 14.3333 31.5158C14.1033 31.5158 13.9166 31.7025 13.9166 31.9325C13.9166 32.1625 14.1033 32.3491 14.3333 32.3491C15.2816 32.3491 16.0525 31.5783 16.0525 30.63C16.0525 30.0816 15.7883 29.5625 15.345 29.2391Z" fill="#8AD8A6"/>
<path d="M14.2833 24.2709C14.0966 24.1359 13.8375 24.1759 13.7008 24.3625C13.565 24.5484 13.6066 24.8092 13.7925 24.945C14.0208 25.1117 14.1575 25.3792 14.1575 25.6617C14.1575 26.15 13.76 26.5475 13.2716 26.5475C13.0416 26.5475 12.855 26.7342 12.855 26.9642C12.855 27.1942 13.0416 27.3809 13.2716 27.3809C14.22 27.3809 14.9908 26.6092 14.9908 25.6617C14.9908 25.1142 14.7258 24.5942 14.2833 24.2709Z" fill="#8AD8A6"/>
<path d="M14.2384 20.0117C14.0517 19.8767 13.7917 19.9175 13.6559 20.1034C13.52 20.29 13.5617 20.55 13.7475 20.6859C13.8475 20.7584 13.9042 20.87 13.9042 20.9934C13.9042 21.2025 13.7334 21.3734 13.5242 21.3734C13.2942 21.3734 13.1075 21.56 13.1075 21.79C13.1075 22.02 13.2942 22.2067 13.5242 22.2067C14.1934 22.2067 14.7375 21.6625 14.7375 20.9934C14.7375 20.6059 14.5509 20.2392 14.2384 20.0117Z" fill="#8AD8A6"/>
<path d="M25.6691 32.3491C25.8991 32.3491 26.0858 32.1625 26.0858 31.9325C26.0858 31.7025 25.8991 31.5158 25.6691 31.5158C25.1808 31.5158 24.7833 31.1183 24.7833 30.63C24.7833 30.3475 24.92 30.0791 25.1483 29.9133C25.3341 29.7775 25.375 29.5166 25.24 29.3308C25.1041 29.145 24.8433 29.1041 24.6575 29.2391C24.2141 29.5625 23.95 30.0816 23.95 30.63C23.95 31.5783 24.7208 32.3491 25.6691 32.3491Z" fill="#8AD8A6"/>
<path d="M26.7309 26.5475C26.2426 26.5475 25.8451 26.15 25.8451 25.6617C25.8451 25.3792 25.9817 25.1117 26.2101 24.945C26.3959 24.8092 26.4367 24.5484 26.3017 24.3625C26.1651 24.1759 25.9059 24.1367 25.7192 24.2709C25.2759 24.5942 25.0117 25.1134 25.0117 25.6609C25.0117 26.6092 25.7834 27.38 26.7309 27.38C26.9609 27.38 27.1476 27.1934 27.1476 26.9634C27.1476 26.7334 26.9617 26.5475 26.7309 26.5475Z" fill="#8AD8A6"/>
<path d="M26.4775 22.2059C26.7075 22.2059 26.8942 22.0192 26.8942 21.7892C26.8942 21.5592 26.7075 21.3725 26.4775 21.3725C26.2683 21.3725 26.0975 21.2017 26.0975 20.9925C26.0975 20.87 26.1542 20.7575 26.2542 20.685C26.44 20.5492 26.4808 20.2892 26.3458 20.1025C26.21 19.9167 25.9492 19.8767 25.7633 20.0109C25.4508 20.2384 25.2642 20.605 25.2642 20.9917C25.2642 21.6617 25.8083 22.2059 26.4775 22.2059Z" fill="#8AD8A6"/>
<path d="M25.365 18.6716C25.3575 18.6716 25.3517 18.6675 25.3442 18.6675C25.3367 18.6675 25.33 18.67 25.3234 18.67C25.2492 18.67 25.1742 18.6725 25.1009 18.6766C24.395 17.6291 23.205 16.9891 21.9317 16.9891C21.24 16.9891 20.5775 17.17 20.0009 17.5141C19.4234 17.17 18.7617 16.9891 18.07 16.9891C16.7967 16.9891 15.6067 17.6291 14.9009 18.6766C14.8284 18.6725 14.755 18.67 14.6817 18.67C14.6742 18.67 14.6675 18.6675 14.66 18.6675C14.6534 18.6675 14.6475 18.6708 14.6409 18.6716C12.5392 18.6841 10.8334 20.3925 10.8334 22.4933C10.8334 23.2091 11.0284 23.895 11.4 24.4941C11.0284 25.0941 10.8334 25.7816 10.8334 26.5C10.8334 27.7341 11.4375 28.8958 12.4292 29.6091C12.3142 29.9733 12.2559 30.3566 12.2559 30.7525C12.2559 32.8641 13.9717 34.5825 16.08 34.5825C16.415 34.5825 16.7492 34.5375 17.075 34.4491C18.0759 34.72 19.145 34.5683 20.0017 34.0575C20.8575 34.5675 21.9267 34.7191 22.9284 34.4491C23.2542 34.5375 23.5884 34.5825 23.9234 34.5825C26.0325 34.5825 27.7475 32.8641 27.7475 30.7525C27.7475 30.3566 27.6892 29.9733 27.5742 29.6091C28.5659 28.8958 29.17 27.7341 29.17 26.5C29.17 25.7808 28.975 25.0933 28.6034 24.4941C28.975 23.895 29.17 23.2091 29.17 22.4933C29.1684 20.3941 27.4642 18.6866 25.365 18.6716ZM17.195 33.6183C17.1159 33.5941 17.0309 33.5941 16.9517 33.6183C16.6667 33.7058 16.3725 33.75 16.0784 33.75C14.4292 33.75 13.0875 32.4058 13.0875 30.7533C13.0875 30.3483 13.1642 29.9625 13.3159 29.6058C13.3167 29.6033 13.3167 29.6016 13.3175 29.5991C13.785 28.4816 14.8692 27.76 16.08 27.76C17.0684 27.76 17.9917 28.2466 18.5509 29.0633C18.6817 29.2525 18.94 29.3008 19.13 29.1716C19.32 29.0416 19.3684 28.7825 19.2384 28.5925C18.5234 27.55 17.3425 26.9266 16.0792 26.9266C14.7017 26.9266 13.4567 27.6591 12.7767 28.8258C12.0825 28.2625 11.6634 27.4075 11.6634 26.5C11.6634 25.8591 11.8609 25.2508 12.2359 24.7408L12.2367 24.7391C12.7992 23.9675 13.7042 23.5066 14.6575 23.5066C16.3084 23.5066 17.6517 24.85 17.6517 26.5008C17.6517 26.7308 17.8384 26.9175 18.0684 26.9175C18.2984 26.9175 18.485 26.7308 18.485 26.5008C18.485 24.3908 16.7675 22.6733 14.6575 22.6733C13.6434 22.6733 12.6767 23.085 11.965 23.7908C11.77 23.39 11.6642 22.95 11.6642 22.4941C11.6642 20.845 13.0084 19.5033 14.6609 19.5033C14.675 19.5033 14.6884 19.5058 14.7025 19.5058C16.3325 19.5308 17.6517 20.8591 17.6517 22.495C17.6517 22.725 17.8384 22.9116 18.0684 22.9116C18.2984 22.9116 18.485 22.725 18.485 22.495C18.485 20.7891 17.355 19.3575 15.81 18.865C16.3717 18.215 17.1925 17.8233 18.0684 17.8233C18.6142 17.8233 19.1309 17.9741 19.5825 18.2466V33.3183C18.8842 33.7391 18.015 33.8683 17.195 33.6183ZM27.2234 28.825C26.5434 27.6591 25.2984 26.9275 23.9217 26.9275C22.6592 26.9275 21.4784 27.55 20.7634 28.5933C20.6334 28.7833 20.6809 29.0425 20.8709 29.1725C21.0609 29.3033 21.32 29.2558 21.45 29.065C22.01 28.2491 22.9342 27.7616 23.9217 27.7616C25.1292 27.7616 26.21 28.48 26.68 29.5925C26.6817 29.5975 26.6817 29.6025 26.6834 29.6075C26.835 29.9641 26.9117 30.35 26.9117 30.755C26.9117 32.4075 25.57 33.7516 23.9209 33.7516C23.6267 33.7516 23.3334 33.7075 23.0475 33.62C23.0084 33.6075 22.9667 33.6016 22.9259 33.6016C22.885 33.6016 22.8434 33.6075 22.8042 33.62C21.9842 33.87 21.1142 33.7408 20.4159 33.3191V18.2458C20.8675 17.9733 21.3842 17.8225 21.93 17.8225C22.8059 17.8225 23.6267 18.2141 24.1884 18.865C22.6442 19.3583 21.515 20.7891 21.515 22.4941C21.515 22.7241 21.7017 22.9108 21.9317 22.9108C22.1617 22.9108 22.3484 22.7241 22.3484 22.4941C22.3484 20.8575 23.67 19.5266 25.3017 19.505C25.3134 19.505 25.325 19.5025 25.3375 19.5025C26.99 19.5025 28.3342 20.8441 28.3342 22.4933C28.3342 22.9491 28.2292 23.3883 28.0342 23.7891C27.3225 23.085 26.3559 22.6733 25.3425 22.6733C23.2325 22.6733 21.515 24.3908 21.515 26.5008C21.515 26.7308 21.7017 26.9175 21.9317 26.9175C22.1617 26.9175 22.3484 26.7308 22.3484 26.5008C22.3484 24.85 23.6917 23.5066 25.3425 23.5066C26.2942 23.5066 27.1984 23.9666 27.7609 24.7366C27.7617 24.7383 27.7625 24.7408 27.7625 24.7408C28.1367 25.2508 28.3342 25.8591 28.3342 26.5C28.335 27.4066 27.9167 28.2616 27.2234 28.825Z" fill="#8AD8A6"/>
<path d="M17.15 9.95754C17.15 10.7125 17.4517 11.4334 17.9834 11.9634V12.2909C17.5117 12.39 17.15 12.79 17.15 13.29C17.15 13.8642 17.6175 14.3317 18.1917 14.3317H18.4375V14.5284C18.4375 15.39 19.1384 16.0909 20 16.0909C20.8617 16.0909 21.5625 15.39 21.5625 14.5284V14.3317H21.8084C22.3825 14.3317 22.85 13.8642 22.85 13.29C22.85 12.7892 22.4884 12.39 22.0167 12.2909V11.9634C22.5484 11.4334 22.85 10.7125 22.85 9.95754C22.85 8.38588 21.5717 7.10754 20 7.10754C18.4284 7.10754 17.15 8.38588 17.15 9.95754ZM20.7292 14.53C20.7292 14.9317 20.4017 15.2592 20 15.2592C19.5984 15.2592 19.2709 14.9317 19.2709 14.53V14.3334H20.7292V14.53ZM21.8084 13.4992H21.1459H18.8542H18.1917C18.0809 13.4992 17.9834 13.4017 17.9834 13.2909C17.9834 13.18 18.0809 13.0825 18.1917 13.0825H18.4H21.6H21.8084C21.9192 13.0825 22.0167 13.18 22.0167 13.2909C22.0167 13.4017 21.9192 13.4992 21.8084 13.4992ZM20 7.94088C21.1117 7.94088 22.0167 8.84504 22.0167 9.95754C22.0167 10.5367 21.765 11.0867 21.3267 11.4684C21.2359 11.5475 21.1834 11.6617 21.1834 11.7825V12.2492H18.8167V11.7825C18.8167 11.6617 18.7642 11.5467 18.6734 11.4684C18.235 11.0875 17.9834 10.5375 17.9834 9.95754C17.9834 8.84588 18.8884 7.94088 20 7.94088Z" fill="#8AD8A6"/>
<path d="M20.4167 6.45829V5.83329C20.4167 5.60329 20.23 5.41663 20 5.41663C19.77 5.41663 19.5834 5.60329 19.5834 5.83329V6.45829C19.5834 6.68829 19.77 6.87496 20 6.87496C20.23 6.87496 20.4167 6.68829 20.4167 6.45829Z" fill="#8AD8A6"/>
<path d="M17.3608 6.61248C17.1983 6.44998 16.9342 6.44998 16.7717 6.61248C16.6092 6.77498 16.6092 7.03914 16.7717 7.20164L17.2133 7.64414C17.295 7.72581 17.4017 7.76581 17.5083 7.76581C17.615 7.76581 17.7217 7.72498 17.8033 7.64414C17.9658 7.48164 17.9658 7.21748 17.8033 7.05498L17.3608 6.61248Z" fill="#8AD8A6"/>
<path d="M22.5809 6.61248L22.1392 7.05498C21.9767 7.21748 21.9767 7.48164 22.1392 7.64414C22.2209 7.72581 22.3275 7.76581 22.4342 7.76581C22.5409 7.76581 22.6475 7.72498 22.7292 7.64414L23.1709 7.20164C23.3334 7.03914 23.3334 6.77498 23.1709 6.61248C23.0067 6.44998 22.7434 6.44998 22.5809 6.61248Z" fill="#8AD8A6"/>
<path d="M23.5417 10.4167H24.1667C24.3967 10.4167 24.5833 10.23 24.5833 10C24.5833 9.77004 24.3967 9.58337 24.1667 9.58337H23.5417C23.3117 9.58337 23.125 9.77004 23.125 10C23.125 10.23 23.3117 10.4167 23.5417 10.4167Z" fill="#8AD8A6"/>
<path d="M15.8858 9.58337C15.6558 9.58337 15.4691 9.77004 15.4691 10C15.4691 10.23 15.6558 10.4167 15.8858 10.4167H16.5108C16.7408 10.4167 16.9274 10.23 16.9274 10C16.9274 9.77004 16.7408 9.58337 16.5108 9.58337H15.8858Z" fill="#8AD8A6"/>
</svg>
