<svg width="40" height="40" viewBox="0 0 40 40" fill="none" xmlns="http://www.w3.org/2000/svg">
<path d="M31.6667 31.6666C34.4281 31.6666 36.6667 29.428 36.6667 26.6666C36.6667 23.9052 34.4281 21.6666 31.6667 21.6666C28.9053 21.6666 26.6667 23.9052 26.6667 26.6666C26.6667 29.428 28.9053 31.6666 31.6667 31.6666Z" fill="#8AD8A6"/>
<path d="M20 2.08337C20.6903 2.08337 21.25 2.64302 21.25 3.33337V3.75242C21.4353 3.75522 21.5935 3.76129 21.741 3.77434C24.758 4.04112 27.1493 6.43259 27.4161 9.44951C27.4405 9.72526 27.4405 10.0377 27.4405 10.4965V12.535C27.4405 19.4057 21.8706 24.9755 15 24.9755C7.86632 24.9755 2.08333 19.1925 2.08333 12.0589L2.08332 10.4966C2.08327 10.0377 2.08323 9.72527 2.10762 9.44951C2.3744 6.43259 4.76588 4.04112 7.7828 3.77434C8.04225 3.75139 8.33417 3.75007 8.75 3.75002V3.33337C8.75 2.64302 9.30963 2.08337 10 2.08337C10.6904 2.08337 11.25 2.64302 11.25 3.33337V6.66671C11.25 7.35706 10.6904 7.91671 10 7.91671C9.30963 7.91671 8.75 7.35706 8.75 6.66671V6.25007C8.31098 6.25037 8.13987 6.25251 8.003 6.26462C6.19287 6.42469 4.75797 7.85957 4.5979 9.66972C4.58455 9.82071 4.58333 10.0134 4.58333 10.5615V12.0589C4.58333 17.8119 9.24703 22.4755 15 22.4755C20.49 22.4755 24.9405 18.025 24.9405 12.535V10.5615C24.9405 10.0134 24.9393 9.82071 24.9258 9.66972C24.7658 7.85957 23.331 6.42469 21.5208 6.26462C21.4503 6.25837 21.3706 6.25479 21.25 6.25274V6.66671C21.25 7.35706 20.6903 7.91671 20 7.91671C19.3096 7.91671 18.75 7.35706 18.75 6.66671V3.33337C18.75 2.64302 19.3096 2.08337 20 2.08337Z" fill="#8AD8A6"/>
<path opacity="0.5" d="M13.75 24.916V28.3337C13.75 33.6265 18.0407 37.917 23.3333 37.917H24.804C27.8253 37.917 30.4593 36.2647 31.8543 33.8204C32.2657 33.0994 32.4703 32.3274 32.57 31.5855C32.277 31.639 31.9752 31.667 31.6667 31.667C31.1082 31.667 30.571 31.5754 30.0695 31.4064C29.9977 31.8515 29.8767 32.2417 29.683 32.5812C28.7148 34.2779 26.8917 35.417 24.804 35.417H23.3333C19.4213 35.417 16.25 32.2457 16.25 28.3337V24.9137C15.8389 24.9549 15.4219 24.9759 15 24.9759C14.5783 24.9759 14.1613 24.9555 13.75 24.916Z" fill="#8AD8A6"/>
</svg>
