<svg width="40" height="40" viewBox="0 0 40 40" fill="none" xmlns="http://www.w3.org/2000/svg">
<path fill-rule="evenodd" clip-rule="evenodd" d="M13.3333 4.99996C13.3333 3.15901 14.8257 1.66663 16.6666 1.66663H23.3333C25.1743 1.66663 26.6666 3.15901 26.6666 4.99996V8.37158L31.3513 6.49769C32.9094 5.87441 34.6881 6.50676 35.5031 7.97381L38.0846 12.6205C39.0263 14.3155 38.3281 16.4533 36.5676 17.2658L30.6438 20L36.5676 22.7341C38.3281 23.5466 39.0263 25.6845 38.0846 27.3795L35.5031 32.0261C34.6881 33.4931 32.9094 34.1255 31.3513 33.5023L26.6666 31.6283V35C26.6666 36.841 25.1743 38.3333 23.3333 38.3333H16.6666C14.8257 38.3333 13.3333 36.841 13.3333 35V31.6283L8.64858 33.5023C7.09038 34.1255 5.31178 33.4931 4.49676 32.0261L1.91524 27.3795C0.973607 25.6845 1.67176 23.5466 3.43224 22.7341L9.35609 20L3.43224 17.2658C1.67176 16.4533 0.973605 14.3155 1.91524 12.6205L4.49676 7.97381C5.31178 6.50678 7.09038 5.87441 8.64858 6.49769L13.3333 8.37158V4.99996ZM23.3333 4.99996H16.6666V10.8333C16.6666 11.3863 16.3923 11.9034 15.9343 12.2134C15.4764 12.5235 14.8944 12.5861 14.3809 12.3808L7.41061 9.59263L4.82909 14.2393L14.0317 18.4866C14.6219 18.7591 14.9999 19.3498 14.9999 20C14.9999 20.6501 14.6219 21.2408 14.0317 21.5133L4.82909 25.7606L7.41061 30.4073L14.3809 27.6191C14.8944 27.4138 15.4764 27.4765 15.9343 27.7865C16.3923 28.0966 16.6666 28.6136 16.6666 29.1666V35H23.3333V29.1666C23.3333 28.6136 23.6076 28.0966 24.0656 27.7865C24.5234 27.4765 25.1054 27.4138 25.6189 27.6191L32.5893 30.4073L35.1708 25.7606L25.9681 21.5133C25.3779 21.2408 24.9999 20.6501 24.9999 20C24.9999 19.3498 25.3779 18.7591 25.9681 18.4866L35.1708 14.2393L32.5893 9.59263L25.6189 12.3808C25.1054 12.5861 24.5234 12.5235 24.0656 12.2134C23.6076 11.9034 23.3333 11.3863 23.3333 10.8333V4.99996Z" fill="#8AD8A6"/>
</svg>
