<svg width="24" height="24" viewBox="0 0 24 24" fill="none" xmlns="http://www.w3.org/2000/svg">
<path d="M12 0.75C9.81196 0.75 7.71354 1.61919 6.16637 3.16637C4.61919 4.71354 3.75 6.81196 3.75 9C3.75 17.43 11.25 22.8825 11.565 23.1075C11.692 23.1979 11.8441 23.2465 12 23.2465C12.1559 23.2465 12.308 23.1979 12.435 23.1075C12.75 22.8825 20.25 17.43 20.25 9C20.25 6.81196 19.3808 4.71354 17.8336 3.16637C16.2865 1.61919 14.188 0.75 12 0.75ZM12 12.75C11.2583 12.75 10.5333 12.5301 9.91661 12.118C9.29993 11.706 8.81928 11.1203 8.53545 10.4351C8.25162 9.74984 8.17736 8.99584 8.32205 8.26841C8.46675 7.54098 8.8239 6.8728 9.34835 6.34835C9.8728 5.8239 10.541 5.46675 11.2684 5.32205C11.9958 5.17736 12.7498 5.25162 13.4351 5.53545C14.1203 5.81928 14.706 6.29993 15.118 6.91661C15.5301 7.5333 15.75 8.25832 15.75 9C15.75 9.99456 15.3549 10.9484 14.6517 11.6516C13.9484 12.3549 12.9946 12.75 12 12.75Z" fill="#323757"/>
</svg>
